<?xml version="1.0" encoding="utf-8"?>
<svg xmlns="http://www.w3.org/2000/svg" viewBox="156.7286 112.292 60.3889 68.9" width="60.3889px" height="68.9px"><path d="M 168.373 122.992 C 166.973 122.992 165.873 124.092 165.873 125.492 L 165.873 131.792 L 160.473 128.692 C 159.273 127.992 157.773 128.392 157.073 129.592 C 156.373 130.792 156.773 132.292 157.973 132.992 L 163.373 136.092 L 158.173 139.092 C 156.973 139.792 156.573 141.292 157.273 142.492 C 157.773 143.292 158.573 143.792 159.473 143.792 C 159.873 143.792 160.373 143.692 160.673 143.492 L 168.373 138.992 L 181.973 146.792 L 168.573 154.492 L 160.573 149.892 C 159.373 149.192 157.873 149.592 157.173 150.792 C 156.473 151.992 156.873 153.492 158.073 154.192 L 163.573 157.292 L 158.073 160.392 C 156.873 161.092 156.473 162.592 157.173 163.792 C 157.673 164.592 158.473 165.092 159.373 165.092 C 159.773 165.092 160.273 164.992 160.573 164.792 L 165.973 161.692 L 165.973 167.792 C 165.973 169.192 167.073 170.292 168.473 170.292 C 169.873 170.292 170.973 169.192 170.973 167.792 L 170.973 158.892 L 184.573 151.092 L 184.573 166.492 L 176.573 171.092 C 175.373 171.792 174.973 173.292 175.673 174.492 C 176.173 175.292 176.973 175.792 177.873 175.792 C 178.273 175.792 178.773 175.692 179.073 175.492 L 184.573 172.392 L 184.573 178.692 C 184.573 180.092 185.673 181.192 187.073 181.192 C 188.473 181.192 189.573 180.092 189.573 178.692 L 189.573 172.492 L 194.873 175.492 C 195.273 175.692 195.673 175.792 196.073 175.792 C 196.973 175.792 197.773 175.392 198.273 174.492 C 198.973 173.292 198.573 171.792 197.373 171.092 L 189.573 166.592 L 189.573 150.992 L 202.873 158.692 L 202.873 167.892 C 202.873 169.292 203.973 170.392 205.373 170.392 C 206.773 170.392 207.873 169.292 207.873 167.892 L 207.873 161.592 L 213.373 164.692 C 213.773 164.892 214.173 164.992 214.573 164.992 C 215.473 164.992 216.273 164.592 216.773 163.692 C 217.473 162.492 217.073 160.992 215.873 160.292 L 210.473 157.192 L 215.773 154.192 C 216.973 153.492 217.373 151.992 216.673 150.792 C 215.973 149.592 214.473 149.192 213.273 149.892 L 205.473 154.392 L 191.873 146.592 L 205.273 138.892 L 213.273 143.492 C 213.673 143.692 214.073 143.792 214.473 143.792 C 215.373 143.792 216.173 143.392 216.673 142.492 C 217.373 141.292 216.973 139.792 215.773 139.092 L 210.273 135.992 L 215.773 132.892 C 216.973 132.192 217.373 130.692 216.673 129.492 C 215.973 128.292 214.473 127.892 213.273 128.592 L 207.873 131.692 L 207.873 125.592 C 207.873 124.192 206.773 123.092 205.373 123.092 C 203.973 123.092 202.873 124.192 202.873 125.592 L 202.873 134.492 L 189.273 142.292 L 189.273 126.892 L 197.273 122.292 C 198.473 121.592 198.873 120.092 198.173 118.892 C 197.473 117.692 195.973 117.292 194.773 117.992 L 189.273 121.092 L 189.273 114.792 C 189.273 113.392 188.173 112.292 186.773 112.292 C 185.373 112.292 184.273 113.392 184.273 114.792 L 184.273 120.992 L 178.973 117.992 C 177.773 117.292 176.273 117.692 175.573 118.892 C 174.873 120.092 175.273 121.592 176.473 122.292 L 184.273 126.792 L 184.273 142.492 L 170.873 134.692 L 170.873 125.492 C 170.873 124.192 169.773 122.992 168.373 122.992 L 168.373 122.992 Z" id="object-0"/></svg>